<svg width="36" height="35" viewBox="0 0 36 35" fill="none" xmlns="http://www.w3.org/2000/svg">
<path d="M28.3401 19.9964C27.8979 19.9964 27.4739 20.1721 27.1613 20.4847C26.8486 20.7973 26.673 21.2214 26.673 21.6635V22.297L24.2057 19.8297C23.3346 18.9654 22.1571 18.4805 20.93 18.4805C19.7028 18.4805 18.5254 18.9654 17.6542 19.8297L16.4872 20.9967L12.3529 16.8624C11.4696 16.0215 10.2967 15.5525 9.07715 15.5525C7.85759 15.5525 6.68472 16.0215 5.80138 16.8624L3.33412 19.3296V9.99406C3.33412 9.55193 3.50976 9.12791 3.8224 8.81527C4.13503 8.50264 4.55905 8.327 5.00119 8.327H16.6706C17.1128 8.327 17.5368 8.15136 17.8494 7.83873C18.162 7.52609 18.3377 7.10207 18.3377 6.65994C18.3377 6.2178 18.162 5.79378 17.8494 5.48115C17.5368 5.16851 17.1128 4.99287 16.6706 4.99287H5.00119C3.67479 4.99287 2.40272 5.51978 1.46481 6.45769C0.526909 7.39559 0 8.66766 0 9.99406V29.9988C0 31.3252 0.526909 32.5973 1.46481 33.5352C2.40272 34.4731 3.67479 35 5.00119 35H25.0059C26.3323 35 27.6044 34.4731 28.5423 33.5352C29.4802 32.5973 30.0071 31.3252 30.0071 29.9988V21.6635C30.0071 21.2214 29.8315 20.7973 29.5188 20.4847C29.2062 20.1721 28.7822 19.9964 28.3401 19.9964ZM5.00119 31.6659C4.55905 31.6659 4.13503 31.4902 3.8224 31.1776C3.50976 30.865 3.33412 30.4409 3.33412 29.9988V24.0474L8.1686 19.2129C8.41352 18.9795 8.73885 18.8493 9.07715 18.8493C9.41546 18.8493 9.74079 18.9795 9.9857 19.2129L15.2703 24.4975L22.4387 31.6659H5.00119ZM26.673 29.9988C26.6706 30.3179 26.5654 30.6278 26.3729 30.8824L18.8545 23.3306L20.0214 22.1636C20.1409 22.0416 20.2836 21.9447 20.441 21.8786C20.5985 21.8124 20.7675 21.7783 20.9383 21.7783C21.1091 21.7783 21.2781 21.8124 21.4356 21.8786C21.593 21.9447 21.7357 22.0416 21.8552 22.1636L26.673 27.0148V29.9988ZM34.5249 5.47632L29.5237 0.475135C29.3651 0.323365 29.1782 0.204395 28.9735 0.125052C28.5677 -0.0416841 28.1124 -0.0416841 27.7066 0.125052C27.5019 0.204395 27.315 0.323365 27.1564 0.475135L22.1553 5.47632C21.9998 5.63176 21.8765 5.81628 21.7924 6.01937C21.7083 6.22245 21.665 6.44012 21.665 6.65994C21.665 7.10388 21.8413 7.52964 22.1553 7.84355C22.4692 8.15746 22.8949 8.33382 23.3389 8.33382C23.7828 8.33382 24.2086 8.15746 24.5225 7.84355L26.673 5.67637V14.9952C26.673 15.4374 26.8486 15.8614 27.1613 16.174C27.4739 16.4867 27.8979 16.6623 28.3401 16.6623C28.7822 16.6623 29.2062 16.4867 29.5188 16.174C29.8315 15.8614 30.0071 15.4374 30.0071 14.9952V5.67637L32.1576 7.84355C32.3126 7.9998 32.497 8.12382 32.7001 8.20846C32.9033 8.29309 33.1212 8.33666 33.3412 8.33666C33.5613 8.33666 33.7792 8.29309 33.9824 8.20846C34.1855 8.12382 34.3699 7.9998 34.5249 7.84355C34.6811 7.68858 34.8051 7.5042 34.8898 7.30105C34.9744 7.0979 35.018 6.88001 35.018 6.65994C35.018 6.43986 34.9744 6.22197 34.8898 6.01882C34.8051 5.81568 34.6811 5.6313 34.5249 5.47632Z" fill="#979798"/>
</svg>
